<svg xmlns="http://www.w3.org/2000/svg" width="495" height="449" viewBox="0 0 495 449">
  <rect width="495" height="449" rx="12" fill="#0d1117" stroke="#30363d" stroke-width="1"/>
  <text x="15" y="20" fill="#e6edf3" font-size="15" font-weight="bold" font-family="'Courier New',monospace">Most Used Languages</text>
  <text x="15" y="34" fill="#8b949e" font-size="10" font-family="'Courier New',monospace">Based on public repositories (bytes of code)</text>
  <rect x="10.00" y="38" width="170.66" height="10" fill="#f34b7d"/><rect x="180.66" y="38" width="88.17" height="10" fill="#178600"/><rect x="268.83" y="38" width="73.95" height="10" fill="#dea584"/><rect x="342.78" y="38" width="54.52" height="10" fill="#b07219"/><rect x="397.30" y="38" width="16.59" height="10" fill="#00add8"/><rect x="413.89" y="38" width="15.17" height="10" fill="#5686a5"/><rect x="429.06" y="38" width="14.70" height="10" fill="#555555"/><rect x="443.76" y="38" width="10.90" height="10" fill="#76b947"/><rect x="454.66" y="38" width="7.58" height="10" fill="#aace60"/><rect x="462.25" y="38" width="7.58" height="10" fill="#a97bff"/><rect x="469.83" y="38" width="7.11" height="10" fill="#ff3e00"/><rect x="476.94" y="38" width="5.69" height="10" fill="#f1e05a"/><rect x="482.63" y="38" width="2.37" height="10" fill="#3178c6"/>
  <rect x="10" y="38" width="170.66" height="10" rx="5" fill="#f34b7d"/>
  <rect x="482.63" y="38" width="2.37" height="10" rx="5" fill="#3178c6"/>
  <circle cx="12" cy="74" r="5" fill="#f34b7d"/>
  <text x="24" y="79" fill="#c9d1d9" font-size="12" font-family="'Courier New',monospace">C++</text>
  <rect x="155" y="66" width="285.0" height="15" rx="3" fill="#f34b7d" opacity="0.9"/>
  <text x="447" y="78" fill="#8b949e" font-size="11" font-family="'Courier New',monospace">36%</text>
  <circle cx="12" cy="102" r="5" fill="#178600"/>
  <text x="24" y="107" fill="#c9d1d9" font-size="12" font-family="'Courier New',monospace">C#</text>
  <rect x="155" y="94" width="147.3" height="15" rx="3" fill="#178600" opacity="0.9"/>
  <text x="309" y="106" fill="#8b949e" font-size="11" font-family="'Courier New',monospace">18.6%</text>
  <circle cx="12" cy="130" r="5" fill="#dea584"/>
  <text x="24" y="135" fill="#c9d1d9" font-size="12" font-family="'Courier New',monospace">Rust</text>
  <rect x="155" y="122" width="123.5" height="15" rx="3" fill="#dea584" opacity="0.9"/>
  <text x="286" y="134" fill="#8b949e" font-size="11" font-family="'Courier New',monospace">15.6%</text>
  <circle cx="12" cy="158" r="5" fill="#b07219"/>
  <text x="24" y="163" fill="#c9d1d9" font-size="12" font-family="'Courier New',monospace">Java</text>
  <rect x="155" y="150" width="91.0" height="15" rx="3" fill="#b07219" opacity="0.9"/>
  <text x="253" y="162" fill="#8b949e" font-size="11" font-family="'Courier New',monospace">11.5%</text>
  <circle cx="12" cy="186" r="5" fill="#00add8"/>
  <text x="24" y="191" fill="#c9d1d9" font-size="12" font-family="'Courier New',monospace">Go</text>
  <rect x="155" y="178" width="27.7" height="15" rx="3" fill="#00add8" opacity="0.9"/>
  <text x="190" y="190" fill="#8b949e" font-size="11" font-family="'Courier New',monospace">3.5%</text>
  <circle cx="12" cy="214" r="5" fill="#5686a5"/>
  <text x="24" y="219" fill="#c9d1d9" font-size="12" font-family="'Courier New',monospace">GLSL</text>
  <rect x="155" y="206" width="25.3" height="15" rx="3" fill="#5686a5" opacity="0.9"/>
  <text x="187" y="218" fill="#8b949e" font-size="11" font-family="'Courier New',monospace">3.2%</text>
  <circle cx="12" cy="242" r="5" fill="#555555"/>
  <text x="24" y="247" fill="#c9d1d9" font-size="12" font-family="'Courier New',monospace">C</text>
  <rect x="155" y="234" width="24.5" height="15" rx="3" fill="#555555" opacity="0.9"/>
  <text x="187" y="246" fill="#8b949e" font-size="11" font-family="'Courier New',monospace">3.1%</text>
  <circle cx="12" cy="270" r="5" fill="#76b947"/>
  <text x="24" y="275" fill="#c9d1d9" font-size="12" font-family="'Courier New',monospace">Cuda</text>
  <rect x="155" y="262" width="18.2" height="15" rx="3" fill="#76b947" opacity="0.9"/>
  <text x="180" y="274" fill="#8b949e" font-size="11" font-family="'Courier New',monospace">2.3%</text>
  <circle cx="12" cy="298" r="5" fill="#aace60"/>
  <text x="24" y="303" fill="#c9d1d9" font-size="12" font-family="'Courier New',monospace">HLSL</text>
  <rect x="155" y="290" width="12.7" height="15" rx="3" fill="#aace60" opacity="0.9"/>
  <text x="175" y="302" fill="#8b949e" font-size="11" font-family="'Courier New',monospace">1.6%</text>
  <circle cx="12" cy="326" r="5" fill="#a97bff"/>
  <text x="24" y="331" fill="#c9d1d9" font-size="12" font-family="'Courier New',monospace">Kotlin</text>
  <rect x="155" y="318" width="12.7" height="15" rx="3" fill="#a97bff" opacity="0.9"/>
  <text x="175" y="330" fill="#8b949e" font-size="11" font-family="'Courier New',monospace">1.6%</text>
  <circle cx="12" cy="354" r="5" fill="#ff3e00"/>
  <text x="24" y="359" fill="#c9d1d9" font-size="12" font-family="'Courier New',monospace">Svelte</text>
  <rect x="155" y="346" width="11.9" height="15" rx="3" fill="#ff3e00" opacity="0.9"/>
  <text x="174" y="358" fill="#8b949e" font-size="11" font-family="'Courier New',monospace">1.5%</text>
  <circle cx="12" cy="382" r="5" fill="#f1e05a"/>
  <text x="24" y="387" fill="#c9d1d9" font-size="12" font-family="'Courier New',monospace">JavaScript</text>
  <rect x="155" y="374" width="9.5" height="15" rx="3" fill="#f1e05a" opacity="0.9"/>
  <text x="172" y="386" fill="#8b949e" font-size="11" font-family="'Courier New',monospace">1.2%</text>
  <circle cx="12" cy="410" r="5" fill="#3178c6"/>
  <text x="24" y="415" fill="#c9d1d9" font-size="12" font-family="'Courier New',monospace">TypeScript</text>
  <rect x="155" y="402" width="4.0" height="15" rx="3" fill="#3178c6" opacity="0.9"/>
  <text x="166" y="414" fill="#8b949e" font-size="11" font-family="'Courier New',monospace">0.5%</text>
</svg>
